#!OML:ASF I:\Actors\actors\Patient Classification 2\Patient 1\Session 1\actor1.ASF
:FULLY-SPECIFIED
:DEGREES

191
root -0.625135 18.2064 5.54064 4.70701 -7.90346 -2.78769
lowerback 0.887067 1.01921 -0.176174
upperback -1.55646 1.35259 -0.187424
thorax -2.09116 0.676627 -0.129767
lowerneck -11.2545 -2.83098 0.528895
upperneck 16.0607 -5.5649 8.74345
head 7.02434 -1.90313 2.21288
rclavicle -1.44243e-014 4.37326e-015
rhumerus -50.5225 35.8522 -99.0963
rradius 108.716
rwrist -31.4487
rhand -6.91467 -38.3916
rfingers 7.12502
rthumb 18.9529 -67.4882
lclavicle -1.44243e-014 4.37326e-015
lhumerus -2.80924 5.87814 73.1492
lradius 112.978
lwrist 77.4679
lhand -41.4655 -29.5527
lfingers 7.12502
lthumb -14.3802 -0.0708134
rfemur 6.76675 7.41852 16.3739
rtibia -10.8528
rfoot -9.10898 -13.5805
rtoes 0.504788
lfemur 10.5102 -5.72807 -12.1264
ltibia -9.73397
lfoot -10.1002 21.4759
ltoes -10.2764
192
root -0.626699 18.2081 5.53198 4.85101 -8.19638 -2.75936
lowerback 0.343834 0.908724 -0.611888
upperback -1.12437 1.20501 -0.0336005
thorax -1.35539 0.608616 0.289941
lowerneck -11.7661 -2.71258 0.82806
upperneck 15.6217 -5.42081 8.6639
head 6.95813 -1.82582 2.14411
rclavicle -9.93923e-017 -7.15625e-015
rhumerus -49.7184 36.7195 -98.966
rradius 108.928
rwrist -32.3251
rhand -7.53509 -38.4407
rfingers 7.12502
rthumb 18.3561 -67.5946
lclavicle -9.93923e-017 -7.15625e-015
lhumerus -1.77584 6.08477 73.5558
lradius 112.821
lwrist 77.5405
lhand -41.1613 -28.9808
lfingers 7.12502
lthumb -14.0871 0.521721
rfemur 6.64091 7.51753 16.2973
rtibia -11.1144
rfoot -8.83285 -13.5486
rtoes 0.756151
lfemur 10.3591 -5.41646 -12.1238
ltibia -9.64326
lfoot -10.1874 21.4253
ltoes -10.0297
193
root -0.628908 18.2095 5.52419 4.97605 -8.53229 -2.76179
lowerback 0.521864 0.897888 -0.799927
upperback -1.22024 1.18644 -0.0352935
thorax -1.55723 0.602285 0.389633
lowerneck -11.9592 -2.66635 1.23034
upperneck 15.5617 -5.42666 8.60567
head 6.96319 -1.80729 2.05616
rclavicle -2.28602e-014 1.98785e-015
rhumerus -49.7277 37.0976 -99.2886
rradius 109.407
rwrist -33.1124
rhand -7.75832 -38.5744
rfingers 7.12502
rthumb 18.1414 -67.7484
lclavicle -2.28602e-014 1.98785e-015
lhumerus -1.0721 5.88787 73.8355
lradius 112.728
lwrist 77.5506
lhand -40.8378 -27.9346
lfingers 7.12502
lthumb -13.7754 1.58936
rfemur 6.50669 7.65191 16.2603
rtibia -11.3246
rfoot -8.54343 -13.5076
rtoes 0.850226
lfemur 10.2455 -5.06601 -12.0828
ltibia -9.55581
lfoot -10.3071 21.3588
ltoes -9.59041
194
root -0.631511 18.2114 5.51861 5.11422 -8.90258 -2.7973
lowerback 0.264139 0.82292 -1.12388
upperback -1.08871 1.08801 0.105657
thorax -1.28549 0.55596 0.722558
lowerneck -12.1878 -2.55614 1.39508
upperneck 15.3852 -5.3091 8.64929
head 6.94013 -1.73871 2.0517
rclavicle 7.33018e-015 -1.86858e-014
rhumerus -49.0941 37.9279 -98.9889
rradius 110.058
rwrist -33.929
rhand -7.70985 -38.726
rfingers 7.12502
rthumb 18.188 -67.8957
lclavicle 7.33018e-015 -1.86858e-014
lhumerus 0.106051 5.86023 73.9402
lradius 112.492
lwrist 77.6354
lhand -40.5811 -27.1525
lfingers 7.12502
lthumb -13.5279 2.38805
rfemur 6.34015 7.79366 16.2568
rtibia -11.4943
rfoot -8.27825 -13.4527
rtoes 1.01975
lfemur 10.1377 -4.67754 -12.0135
ltibia -9.4708
lfoot -10.4272 21.302
ltoes -9.23269
195
root -0.63262 18.2132 5.51506 5.27402 -9.22265 -2.8189
lowerback -0.00167023 0.719145 -1.35284
upperback -1.01995 0.952628 0.188288
thorax -1.06838 0.489295 0.941631
lowerneck -12.3766 -2.45313 1.57786
upperneck 15.3364 -5.22267 8.72595
head 6.9535 -1.67734 2.05301
rclavicle -7.1811e-015 7.95139e-015
rhumerus -48.2846 38.845 -98.495
rradius 110.918
rwrist -34.7098
rhand -7.65758 -39.0157
rfingers 7.12502
rthumb 18.2383 -68.1807
lclavicle -7.1811e-015 7.95139e-015
lhumerus 1.55491 5.7049 73.7612
lradius 112.131
lwrist 77.8918
lhand -40.1856 -26.4681
lfingers 7.12502
lthumb -13.1467 3.09742
rfemur 6.15656 7.89705 16.2354
rtibia -11.6374
rfoot -8.05938 -13.3913
rtoes 1.17024
lfemur 9.99529 -4.33365 -11.9672
ltibia -9.38121
lfoot -10.5151 21.2647
ltoes -9.02472
196
root -0.632883 18.2139 5.51197 5.37313 -9.49364 -2.80431
lowerback -0.026461 0.586976 -1.45293
upperback -1.10808 0.774958 0.132776
thorax -1.14066 0.402083 0.942353
lowerneck -12.4618 -2.32116 2.05837
upperneck 15.4848 -5.14292 8.64828
head 7.00226 -1.60987 1.95682
rclavicle -8.44835e-016 2.78299e-015
rhumerus -47.448 39.6945 -98.0334
rradius 111.847
rwrist -35.4879
rhand -7.15829 -39.453
rfingers 7.12502
rthumb 18.7186 -68.5724
lclavicle -8.44835e-016 2.78299e-015
lhumerus 3.18449 5.49096 73.3856
lradius 111.832
lwrist 78.1464
lhand -39.7717 -25.5945
lfingers 7.12502
lthumb -12.7477 3.99632
rfemur 6.0308 7.93174 16.1881
rtibia -11.7339
rfoot -7.84867 -13.2822
rtoes 1.08615
lfemur 9.90896 -4.04752 -11.9648
ltibia -9.29955
lfoot -10.5935 21.2241
ltoes -8.83206
197
root -0.634294 18.2125 5.50967 5.35567 -9.86652 -2.81265
lowerback 0.0596431 0.449404 -1.54256
upperback -1.21021 0.587925 0.0731446
thorax -1.28886 0.3108 0.932187
lowerneck -12.4736 -2.15059 2.59541
upperneck 15.7482 -5.02337 8.53301
head 7.07257 -1.52004 1.84442
rclavicle -6.80837e-015 1.66979e-014
rhumerus -46.4535 40.6932 -97.4508
rradius 113
rwrist -36.6072
rhand -6.5841 -39.7493
rfingers 7.12502
rthumb 19.2708 -68.8145
lclavicle -6.80837e-015 1.66979e-014
lhumerus 5.00108 5.32419 72.8389
lradius 111.461
lwrist 78.4278
lhand -39.496 -24.7706
lfingers 7.12502
lthumb -12.4819 4.83665
rfemur 6.00306 8.0146 16.1751
rtibia -11.7936
rfoot -7.59425 -13.101
rtoes 0.609284
lfemur 9.98572 -3.67723 -11.9507
ltibia -9.20994
lfoot -10.7497 21.1437
ltoes -8.48345
198
root -0.636282 18.2104 5.50919 5.31004 -10.3062 -2.87333
lowerback 0.0324965 0.309498 -1.6033
upperback -1.2547 0.400524 0.041658
thorax -1.31426 0.218019 0.936284
lowerneck -12.4658 -1.94624 3.10393
upperneck 16.05 -4.86026 8.44502
head 7.1533 -1.40688 1.75034
rclavicle -3.23025e-015 7.95139e-016
rhumerus -45.1383 41.8366 -96.5803
rradius 114.168
rwrist -37.9014
rhand -6.96602 -39.8972
rfingers 7.12502
rthumb 18.9035 -68.9986
lclavicle -3.23025e-015 7.95139e-016
lhumerus 7.07799 5.17985 72.1396
lradius 110.813
lwrist 78.8148
lhand -39.1482 -24.1352
lfingers 7.12502
lthumb -12.1466 5.49216
rfemur 6.00723 8.21203 16.2208
rtibia -11.8517
rfoot -7.33229 -12.9542
rtoes -0.237361
lfemur 10.11 -3.2431 -11.8863
ltibia -9.07765
lfoot -10.9918 21.0435
ltoes -7.93144
199
root -0.637972 18.2094 5.51072 5.2984 -10.6843 -2.90843
lowerback 0.211572 0.155371 -1.58408
upperback -1.53219 0.187516 -0.0684697
thorax -1.6929 0.11496 0.814298
lowerneck -12.3187 -1.71935 3.73797
upperneck 16.581 -4.70899 8.37319
head 7.28498 -1.2827 1.64212
rclavicle 3.41661e-014 -8.74653e-015
rhumerus -43.9852 42.8677 -95.7541
rradius 115.385
rwrist -39.2937
rhand -7.09638 -40.388
rfingers 7.12502
rthumb 18.7781 -69.5017
lclavicle 3.41661e-014 -8.74653e-015
lhumerus 9.07356 4.92472 71.2832
lradius 109.996
lwrist 79.3614
lhand -38.7226 -23.127
lfingers 7.12502
lthumb -11.7362 6.5242
rfemur 5.9792 8.37229 16.2366
rtibia -11.8979
rfoot -7.10971 -12.8285
rtoes -0.682977
lfemur 10.1645 -2.8648 -11.8483
ltibia -8.9159
lfoot -11.1804 20.952
ltoes -7.53221
200
root -0.638606 18.209 5.51449 5.28942 -11.0334 -2.88079
lowerback -0.0825301 -0.103781 -1.82041
upperback -1.51225 -0.153612 -0.00765898
thorax -1.49798 -0.0536785 1.01408
lowerneck -12.3585 -1.37376 4.17605
upperneck 17.0264 -4.35434 8.27413
head 7.42078 -1.07366 1.57614
rclavicle -1.77912e-014 -7.15625e-015
rhumerus -41.7694 44.2997 -93.8815
rradius 116.613
rwrist -41.1226
rhand -6.34992 -41.2299
rfingers 7.12502
rthumb 19.4959 -70.2724
lclavicle -1.77912e-014 -7.15625e-015
lhumerus 11.535 5.19661 70.709
lradius 109.033
lwrist 80.1216
lhand -38.3991 -21.6096
lfingers 7.12502
lthumb -11.4242 8.05921
rfemur 5.92691 8.44635 16.1789
rtibia -11.902
rfoot -6.94751 -12.6447
rtoes -0.551
lfemur 10.2061 -2.51597 -11.8822
ltibia -8.77327
lfoot -11.3212 20.87
ltoes -7.26697
201
root -0.637435 18.2088 5.52052 5.2895 -11.4325 -2.86772
lowerback -0.434031 -0.38978 -2.07231
upperback -1.4901 -0.526937 0.128503
thorax -1.26326 -0.238796 1.29633
lowerneck -12.2959 -0.999455 4.55811
upperneck 17.4239 -3.91257 8.05768
head 7.5203 -0.842066 1.4903
rclavicle -1.16413e-014 -1.19271e-014
rhumerus -39.1354 45.844 -91.5049
rradius 117.805
rwrist -42.9274
rhand -5.95892 -41.8279
rfingers 7.12502
rthumb 19.8718 -70.8319
lclavicle -1.16413e-014 -1.19271e-014
lhumerus 14.0043 5.66384 70.2602
lradius 107.869
lwrist 81.2179
lhand -38.2616 -20.3152
lfingers 7.12502
lthumb -11.2915 9.36082
rfemur 5.85168 8.50104 16.1289
rtibia -11.874
rfoot -6.76513 -12.3968
rtoes -0.571855
lfemur 10.2761 -2.11565 -11.906
ltibia -8.66536
lfoot -11.5063 20.7947
ltoes -6.83928
